<svg width="150" height="35" viewBox="0 0 150 35" fill="none" xmlns="http://www.w3.org/2000/svg">
<g clip-path="url(#clip0_0_1100)">
<path d="M22.8863 18.7544H2.54439C2.21046 18.755 1.8797 18.6908 1.57103 18.5655C1.26235 18.4403 0.981828 18.2564 0.745502 18.0244C0.509175 17.7924 0.321687 17.5168 0.193766 17.2135C0.0658439 16.9102 -5.02381e-07 16.5851 8.60063e-10 16.2567L8.60062e-10 2.50606C-1.16049e-05 2.06705 0.117433 1.63578 0.340541 1.25553C0.563648 0.875287 0.884565 0.55946 1.27106 0.339764C1.65756 0.120069 2.09604 0.00423918 2.54247 0.00390697C2.98889 0.00357476 3.42754 0.118752 3.81438 0.337872L12.7175 5.38974L21.6075 0.337872C21.9943 0.118752 22.433 0.00357476 22.8794 0.00390697C23.3258 0.00423918 23.7643 0.120069 24.1508 0.339764C24.5373 0.55946 24.8582 0.875287 25.0813 1.25553C25.3044 1.63578 25.4219 2.06705 25.4219 2.50606V16.2567C25.4219 16.9184 25.1549 17.553 24.6795 18.0213C24.2041 18.4896 23.5592 18.7533 22.8863 18.7544Z" fill="white"/>
<path d="M46.4822 5.17801C44.6183 5.17801 43.2454 5.87472 42.3635 7.26814C41.9905 6.6025 41.4346 6.0535 40.7593 5.68389C40.084 5.31428 39.3165 5.13897 38.5447 5.17801C37.7866 5.13783 37.0311 5.29557 36.355 5.63524C35.6789 5.9749 35.1062 6.4844 34.695 7.11203V5.52492H31.7891V18.7552H34.695V11.3443C34.629 10.4068 34.9215 9.47887 35.5153 8.7425C35.7873 8.44617 36.1223 8.21219 36.4964 8.05709C36.8705 7.90199 37.2747 7.82955 37.6804 7.84488C38.0303 7.82438 38.3805 7.88155 38.7049 8.01216C39.0293 8.14277 39.3197 8.34347 39.5545 8.5994C40.0272 9.2081 40.2606 9.96418 40.2116 10.7286V18.7552H43.1176V11.3443C43.1176 10.1995 43.3777 9.32791 43.8981 8.7425C44.169 8.44898 44.5032 8.21876 44.8764 8.0687C45.2495 7.91864 45.652 7.85254 46.0544 7.87523C46.4104 7.85789 46.7659 7.91764 47.0959 8.05027C47.4258 8.1829 47.7221 8.38516 47.9638 8.64277C48.4615 9.23541 48.7121 9.99168 48.6649 10.7589V18.7552H51.593V10.5508C51.6641 9.11936 51.1605 7.71776 50.1907 6.64804C49.7143 6.1579 49.1371 5.77326 48.4976 5.51977C47.8581 5.26628 47.171 5.14977 46.4822 5.17801Z" fill="white"/>
<path d="M64.9681 7.40272C63.8745 5.91968 62.3047 5.17816 60.2586 5.17816C59.3698 5.16789 58.4887 5.34174 57.6728 5.6884C56.8568 6.03507 56.1242 6.54677 55.5226 7.19024C54.8768 7.8459 54.3703 8.62149 54.0326 9.47174C53.6949 10.322 53.5329 11.2299 53.5559 12.1424C53.5331 13.0549 53.6953 13.9627 54.0329 14.8129C54.3706 15.6631 54.877 16.4387 55.5226 17.0945C56.1242 17.738 56.8568 18.2497 57.6728 18.5963C58.4887 18.943 59.3698 19.1169 60.2586 19.1066C62.3164 19.1066 63.8863 18.3564 64.9681 16.856V18.7597H67.8741V5.52507H64.9681V7.40272ZM63.7599 15.1778C62.9398 15.9466 61.8502 16.3755 60.7172 16.3755C59.5842 16.3755 58.4946 15.9466 57.6745 15.1778C57.2791 14.7755 56.9687 14.3001 56.7613 13.7791C56.5539 13.2581 56.4536 12.7018 56.4663 12.1424C56.445 11.5819 56.5413 11.0232 56.7491 10.501C56.957 9.97876 57.272 9.50421 57.6745 9.10691C58.4883 8.32607 59.5802 7.88899 60.7172 7.88899C61.8542 7.88899 62.9461 8.32607 63.7599 9.10691C64.1624 9.50421 64.4774 9.97876 64.6853 10.501C64.8931 11.0232 64.9894 11.5819 64.9681 12.1424C64.984 12.7022 64.8852 13.2594 64.6776 13.7808C64.4701 14.3023 64.158 14.7774 63.7599 15.1778Z" fill="white"/>
<path d="M74.0471 7.74388V5.52366H71.1367V18.7539H74.0471V12.0846C74.0471 10.7259 74.4587 9.75595 75.2818 9.17488C76.1244 8.57688 77.1568 8.29536 78.1922 8.38132V5.28516C76.1638 5.28516 74.7821 6.10473 74.0471 7.74388Z" fill="white"/>
<path d="M91.6422 5.51942H88.0924L82.8713 11.2608V0.341797H79.9609V18.754H82.8713V12.7048L88.3879 18.754H91.8583L85.7244 12.0066L91.6422 5.51942Z" fill="white"/>
<path d="M96.0915 5.52539H93.1855V18.76H96.0915V5.52539Z" fill="white"/>
<path d="M112.65 1.76953H109.74V5.52482H103.628V1.76953H100.722V5.52482H98.248V8.04425H100.722V14.6269C100.722 16.3614 101.207 17.5481 102.177 18.187C103.147 18.8259 104.744 19.0153 106.966 18.7551V16.188C106.23 16.2226 105.617 16.227 105.123 16.188C104.714 16.1941 104.318 16.0538 104.007 15.7933C103.867 15.6317 103.761 15.444 103.696 15.2414C103.631 15.0388 103.608 14.8254 103.628 14.6139V8.04425H109.74V14.6269C109.74 16.3614 110.225 17.5481 111.195 18.187C112.165 18.8259 113.758 19.0153 115.975 18.7551V16.188C115.243 16.2226 114.626 16.227 114.132 16.188C113.723 16.1941 113.327 16.0538 113.016 15.7933C112.877 15.6314 112.772 15.4435 112.707 15.2409C112.643 15.0383 112.62 14.8251 112.641 14.6139V8.04425H115.975V5.52482H112.641L112.65 1.76953Z" fill="white"/>
<path d="M121.531 5.52539H118.625V18.76H121.531V5.52539Z" fill="white"/>
<path d="M131.118 5.17668C130.17 5.14126 129.226 5.30207 128.345 5.64869C127.465 5.99531 126.668 6.52 126.007 7.18875C125.354 7.8401 124.84 8.61434 124.498 9.4652C124.155 10.3161 123.991 11.2261 124.014 12.1409C123.985 13.0665 124.149 13.9882 124.496 14.8489C124.844 15.7097 125.367 16.4912 126.034 17.1451C126.738 17.8023 127.569 18.3143 128.478 18.6509C129.387 18.9875 130.355 19.1419 131.325 19.1051C133.945 19.1051 135.91 18.1424 137.221 16.2171L134.822 14.8424C134.433 15.3807 133.911 15.813 133.306 16.099C132.7 16.3849 132.031 16.515 131.361 16.4772C130.349 16.5122 129.353 16.2247 128.521 15.6577C127.751 15.1026 127.227 14.2785 127.057 13.3551H137.768C137.834 12.9623 137.87 12.5651 137.874 12.1669C137.917 10.3348 137.232 8.55829 135.964 7.21477C135.354 6.55159 134.604 6.0261 133.768 5.67432C132.931 5.32253 132.028 5.15277 131.118 5.17668ZM126.973 11.2476C127.02 10.7416 127.171 10.2502 127.417 9.80312C127.663 9.35599 127.997 8.96232 128.402 8.64577C129.164 8.04915 130.118 7.74139 131.092 7.7785C132.01 7.75854 132.905 8.06667 133.61 8.64577C133.999 8.96767 134.317 9.36459 134.545 9.81206C134.772 10.2595 134.904 10.7481 134.932 11.2476H126.973Z" fill="white"/>
<path d="M149.607 13.2661C149.327 12.7606 148.913 12.3395 148.408 12.0476C147.941 11.7652 147.446 11.5298 146.931 11.3451C146.391 11.1719 145.842 11.0272 145.286 10.9115C144.629 10.748 143.997 10.5032 143.403 10.183C143.214 10.0911 143.053 9.94995 142.94 9.77488C142.826 9.59981 142.764 9.3975 142.759 9.18993C142.75 8.98304 142.796 8.77742 142.894 8.5939C142.992 8.41038 143.137 8.25547 143.315 8.14487C143.735 7.8819 144.228 7.75177 144.726 7.77194C145.963 7.77194 146.807 8.27496 147.257 9.28099L149.704 7.93238C149.25 7.0813 148.555 6.37791 147.702 5.9073C146.792 5.41238 145.766 5.16117 144.726 5.17879C143.454 5.13703 142.207 5.53097 141.198 6.29324C140.744 6.63844 140.38 7.08437 140.134 7.59459C139.889 8.10481 139.77 8.66485 139.787 9.22896C139.755 9.8315 139.89 10.4313 140.179 10.9635C140.466 11.4605 140.887 11.869 141.397 12.143C141.86 12.4137 142.347 12.6444 142.852 12.8325C143.385 13.0189 143.929 13.1781 144.479 13.3095C146.187 13.7171 147.039 14.2823 147.037 15.005C147.037 15.9879 146.274 16.4808 144.748 16.4837C143.222 16.4866 142.227 15.852 141.763 14.58L139.258 16.0024C139.678 16.9628 140.406 17.7621 141.33 18.279C142.374 18.8498 143.554 19.1343 144.748 19.1029C146.083 19.1478 147.396 18.7659 148.492 18.0144C148.975 17.6787 149.366 17.2296 149.629 16.7079C149.891 16.1862 150.017 15.6084 149.995 15.0267C150.027 14.4163 149.894 13.8086 149.607 13.2661Z" fill="white"/>
<path d="M94.6408 3.53848C95.6344 3.53848 96.4399 2.74636 96.4399 1.76924C96.4399 0.792115 95.6344 0 94.6408 0C93.6471 0 92.8416 0.792115 92.8416 1.76924C92.8416 2.74636 93.6471 3.53848 94.6408 3.53848Z" fill="white"/>
<path d="M120.076 3.53848C121.069 3.53848 121.875 2.74636 121.875 1.76924C121.875 0.792115 121.069 0 120.076 0C119.082 0 118.276 0.792115 118.276 1.76924C118.276 2.74636 119.082 3.53848 120.076 3.53848Z" fill="white"/>
</g>
<path d="M0.238411 25.348H2.90889C3.84114 25.348 4.61477 25.6684 5.22979 26.3092C5.85128 26.95 6.16203 27.7398 6.16203 28.6788C6.16203 29.6115 5.85128 30.4013 5.22979 31.0485C4.61477 31.6892 3.84114 32.0096 2.90889 32.0096H0.238411V25.348ZM1.35516 30.9628H2.90889C3.54981 30.9628 4.07096 30.7471 4.47234 30.3157C4.8802 29.8843 5.08412 29.3386 5.08412 28.6788C5.08412 28.019 4.8802 27.4734 4.47234 27.042C4.07096 26.6105 3.54981 26.3948 2.90889 26.3948H1.35516V30.9628Z" fill="white"/>
<path d="M8.10268 26.3472C7.9732 26.4741 7.81783 26.5376 7.63656 26.5376C7.45529 26.5376 7.29668 26.4741 7.16073 26.3472C7.03125 26.214 6.96651 26.0586 6.96651 25.8809C6.96651 25.7033 7.03125 25.551 7.16073 25.4241C7.29021 25.2909 7.44882 25.2243 7.63656 25.2243C7.8243 25.2243 7.98291 25.2909 8.11239 25.4241C8.24187 25.551 8.30661 25.7033 8.30661 25.8809C8.30661 26.0586 8.23863 26.214 8.10268 26.3472ZM8.16095 32.0096H7.11217V27.2513H8.16095V32.0096Z" fill="white"/>
<path d="M13.2436 27.9556V27.2513H14.2729V31.7908C14.2729 32.514 14.0302 33.0692 13.5446 33.4562C13.0656 33.8432 12.4764 34.0367 11.7773 34.0367C10.6573 34.0367 9.89011 33.6528 9.47578 32.8852L10.3789 32.3713C10.6314 32.8598 11.104 33.1041 11.7967 33.1041C12.2498 33.1041 12.6027 32.9867 12.8552 32.7519C13.1141 32.5235 13.2436 32.2031 13.2436 31.7908V31.2102C12.8487 31.7622 12.2855 32.0382 11.5539 32.0382C10.8741 32.0382 10.2947 31.8003 9.81566 31.3244C9.34307 30.8423 9.10677 30.2618 9.10677 29.5829C9.10677 28.8977 9.34307 28.3204 9.81566 27.8509C10.2883 27.3687 10.8677 27.1276 11.5539 27.1276C12.2855 27.1276 12.8487 27.4036 13.2436 27.9556ZM10.5925 30.6488C10.8903 30.9343 11.2593 31.077 11.6996 31.077C12.1398 31.077 12.5056 30.9343 12.7969 30.6488C13.0947 30.3633 13.2436 30.008 13.2436 29.5829C13.2436 29.1578 13.0947 28.8025 12.7969 28.517C12.5056 28.2315 12.1398 28.0888 11.6996 28.0888C11.2593 28.0888 10.8903 28.2315 10.5925 28.517C10.3012 28.8025 10.1555 29.1578 10.1555 29.5829C10.1555 30.008 10.3012 30.3633 10.5925 30.6488Z" fill="white"/>
<path d="M16.4859 26.3472C16.3564 26.4741 16.201 26.5376 16.0198 26.5376C15.8385 26.5376 15.6799 26.4741 15.5439 26.3472C15.4144 26.214 15.3497 26.0586 15.3497 25.8809C15.3497 25.7033 15.4144 25.551 15.5439 25.4241C15.6734 25.2909 15.832 25.2243 16.0198 25.2243C16.2075 25.2243 16.3661 25.2909 16.4956 25.4241C16.6251 25.551 16.6898 25.7033 16.6898 25.8809C16.6898 26.0586 16.6218 26.214 16.4859 26.3472ZM16.5441 32.0096H15.4954V27.2513H16.5441V32.0096Z" fill="white"/>
<path d="M20.4712 27.2513V28.2411H19.267V30.525C19.267 30.7217 19.3124 30.8645 19.403 30.9533C19.4936 31.0358 19.6264 31.0834 19.8011 31.096C19.9824 31.1024 20.2058 31.0992 20.4712 31.0865V32.0096C19.6684 32.1048 19.0923 32.0382 18.7427 31.8098C18.3931 31.575 18.2183 31.1468 18.2183 30.525V28.2411H17.3249V27.2513H18.2183V26.2235L19.267 25.919V27.2513H20.4712Z" fill="white"/>
<path d="M25.0688 27.927V27.2513H26.1175V32.0096H25.0688V31.3244C24.6738 31.8637 24.1074 32.1334 23.3694 32.1334C22.7025 32.1334 22.1328 31.8923 21.6602 31.4101C21.1876 30.9279 20.9513 30.3347 20.9513 29.6305C20.9513 28.9263 21.1876 28.333 21.6602 27.8509C22.1328 27.3687 22.7025 27.1276 23.3694 27.1276C24.1074 27.1276 24.6738 27.3941 25.0688 27.927ZM22.4371 30.7249C22.7284 31.0104 23.0942 31.1531 23.5344 31.1531C23.9747 31.1531 24.3404 31.0104 24.6318 30.7249C24.9231 30.4331 25.0688 30.0682 25.0688 29.6305C25.0688 29.1927 24.9231 28.8311 24.6318 28.5456C24.3404 28.2537 23.9747 28.1078 23.5344 28.1078C23.0942 28.1078 22.7284 28.2537 22.4371 28.5456C22.1458 28.8311 22.0001 29.1927 22.0001 29.6305C22.0001 30.0619 22.1458 30.4267 22.4371 30.7249Z" fill="white"/>
<path d="M28.3887 32.0096H27.34V25.0625H28.3887V32.0096Z" fill="white"/>
<path d="M33.2674 29.6115H29.6744V28.6217H33.2674V29.6115Z" fill="white"/>
<path d="M38.4022 27.927V27.2513H39.451V32.0096H38.4022V31.3244C38.0073 31.8637 37.4408 32.1334 36.7028 32.1334C36.036 32.1334 35.4663 31.8923 34.9937 31.4101C34.5211 30.9279 34.2848 30.3347 34.2848 29.6305C34.2848 28.9263 34.5211 28.333 34.9937 27.8509C35.4663 27.3687 36.036 27.1276 36.7028 27.1276C37.4408 27.1276 38.0073 27.3941 38.4022 27.927ZM35.7706 30.7249C36.0619 31.0104 36.4277 31.1531 36.8679 31.1531C37.3081 31.1531 37.6739 31.0104 37.9652 30.7249C38.2565 30.4331 38.4022 30.0682 38.4022 29.6305C38.4022 29.1927 38.2565 28.8311 37.9652 28.5456C37.6739 28.2537 37.3081 28.1078 36.8679 28.1078C36.4277 28.1078 36.0619 28.2537 35.7706 28.5456C35.4792 28.8311 35.3336 29.1927 35.3336 29.6305C35.3336 30.0619 35.4792 30.4267 35.7706 30.7249Z" fill="white"/>
<path d="M40.6734 27.2513H43.9265V28.2411H41.7222V32.0096H40.6734V27.2513Z" fill="white"/>
<path d="M49.1381 30.0682H45.2732C45.3508 30.4235 45.5256 30.6995 45.7975 30.8962C46.0759 31.0929 46.419 31.1912 46.8269 31.1912C47.3772 31.1912 47.7947 30.9945 48.0796 30.6012L48.9439 31.096C48.4713 31.7876 47.7624 32.1334 46.8172 32.1334C46.0338 32.1334 45.3962 31.8986 44.9041 31.4291C44.4186 30.9533 44.1758 30.3537 44.1758 29.6305C44.1758 28.9263 44.4154 28.333 44.8944 27.8509C45.367 27.3687 45.9821 27.1276 46.7395 27.1276C47.4452 27.1276 48.0278 27.3719 48.4874 27.8604C48.9471 28.3489 49.1769 28.9421 49.1769 29.64C49.1769 29.7669 49.164 29.9096 49.1381 30.0682ZM45.2634 29.2308H48.1184C48.0472 28.8565 47.8854 28.5678 47.6329 28.3648C47.3869 28.1617 47.0858 28.0602 46.7298 28.0602C46.3414 28.0602 46.0177 28.1649 45.7587 28.3743C45.4997 28.5837 45.3347 28.8692 45.2634 29.2308Z" fill="white"/>
<path d="M53.3723 29.1451V27.2513H54.4211V32.0096H53.3723V30.1158H51.1485V32.0096H50.0998V27.2513H51.1485V29.1451H53.3723Z" fill="white"/>
<path d="M55.1233 27.2513H59.3475V28.2411H57.7647V32.0096H56.7159V28.2411H55.1233V27.2513Z" fill="white"/>
<path d="M62.1593 32.1334C61.4277 32.1334 60.8159 31.8923 60.3239 31.4101C59.8384 30.9216 59.5956 30.3284 59.5956 29.6305C59.5956 28.9199 59.8384 28.3267 60.3239 27.8509C60.8159 27.3687 61.4277 27.1276 62.1593 27.1276C62.6319 27.1276 63.0624 27.2386 63.4508 27.4607C63.8392 27.6827 64.1306 27.9809 64.3248 28.3553L63.4217 28.8692C63.3116 28.6408 63.1433 28.4631 62.9167 28.3362C62.6966 28.203 62.4409 28.1364 62.1496 28.1364C61.7223 28.1364 61.363 28.2791 61.0717 28.5646C60.7868 28.8565 60.6444 29.2118 60.6444 29.6305C60.6444 30.0492 60.7868 30.4045 61.0717 30.6963C61.363 30.9818 61.7223 31.1246 62.1496 31.1246C62.4344 31.1246 62.6901 31.0612 62.9167 30.9343C63.1498 30.801 63.3246 30.6202 63.4411 30.3918L64.3442 30.8962C64.137 31.2769 63.836 31.5782 63.4411 31.8003C63.0527 32.0223 62.6254 32.1334 62.1593 32.1334Z" fill="white"/>
<path d="M64.5402 27.2513H68.7644V28.2411H67.1815V32.0096H66.1327V28.2411H64.5402V27.2513Z" fill="white"/>
<path d="M72.834 29.5639C73.3131 29.7859 73.5526 30.1507 73.5526 30.6583C73.5526 31.0643 73.4102 31.3911 73.1253 31.6385C72.8469 31.8859 72.4585 32.0096 71.96 32.0096H69.474V27.2513H71.7658C72.2578 27.2513 72.643 27.3719 72.9214 27.613C73.1998 27.854 73.339 28.1713 73.339 28.5646C73.339 29.0151 73.1706 29.3482 72.834 29.5639ZM71.6881 28.1269H70.4743V29.1832H71.6881C72.1154 29.1832 72.329 29.0056 72.329 28.6503C72.329 28.3013 72.1154 28.1269 71.6881 28.1269ZM70.4743 31.1151H71.8629C72.3031 31.1151 72.5232 30.9279 72.5232 30.5536C72.5232 30.3886 72.465 30.2618 72.3484 30.1729C72.2319 30.0778 72.0701 30.0302 71.8629 30.0302H70.4743V31.1151Z" fill="white"/>
<path d="M78.513 31.4101C78.021 31.8923 77.4157 32.1334 76.6971 32.1334C75.9785 32.1334 75.3732 31.8923 74.8812 31.4101C74.3827 30.9216 74.1334 30.3284 74.1334 29.6305C74.1334 28.9326 74.3827 28.3394 74.8812 27.8509C75.3732 27.3687 75.9785 27.1276 76.6971 27.1276C77.4157 27.1276 78.021 27.3687 78.513 27.8509C79.0115 28.3394 79.2607 28.9326 79.2607 29.6305C79.2607 30.3284 79.0115 30.9216 78.513 31.4101ZM75.1822 29.6305C75.1822 30.0619 75.3279 30.4204 75.6192 30.7059C75.9105 30.9914 76.2698 31.1341 76.6971 31.1341C77.1244 31.1341 77.4837 30.9914 77.775 30.7059C78.0663 30.4204 78.212 30.0619 78.212 29.6305C78.212 29.1991 78.0663 28.8406 77.775 28.5551C77.4837 28.2696 77.1244 28.1269 76.6971 28.1269C76.2698 28.1269 75.9105 28.2696 75.6192 28.5551C75.3279 28.8406 75.1822 29.1991 75.1822 29.6305Z" fill="white"/>
<path d="M82.6368 27.2513H86.9581V32.0096H85.9093V28.222H83.6856V32.0096H82.6368V27.2513Z" fill="white"/>
<path d="M92.2827 31.4101C91.7907 31.8923 91.1854 32.1334 90.4668 32.1334C89.7482 32.1334 89.1429 31.8923 88.6508 31.4101C88.1524 30.9216 87.9031 30.3284 87.9031 29.6305C87.9031 28.9326 88.1524 28.3394 88.6508 27.8509C89.1429 27.3687 89.7482 27.1276 90.4668 27.1276C91.1854 27.1276 91.7907 27.3687 92.2827 27.8509C92.7812 28.3394 93.0304 28.9326 93.0304 29.6305C93.0304 30.3284 92.7812 30.9216 92.2827 31.4101ZM88.9519 29.6305C88.9519 30.0619 89.0975 30.4204 89.3889 30.7059C89.6802 30.9914 90.0395 31.1341 90.4668 31.1341C90.894 31.1341 91.2533 30.9914 91.5447 30.7059C91.836 30.4204 91.9817 30.0619 91.9817 29.6305C91.9817 29.1991 91.836 28.8406 91.5447 28.5551C91.2533 28.2696 90.894 28.1269 90.4668 28.1269C90.0395 28.1269 89.6802 28.2696 89.3889 28.5551C89.0975 28.8406 88.9519 29.1991 88.9519 29.6305Z" fill="white"/>
<path d="M94.2152 27.2513H97.9345V32.0096H96.8857V28.2411H95.264V30.0111C95.264 30.7534 95.0989 31.2864 94.7688 31.6099C94.4386 31.9335 93.9563 32.0667 93.3218 32.0096V31.0485C93.6196 31.0992 93.843 31.0389 93.9919 30.8676C94.1408 30.69 94.2152 30.3886 94.2152 29.9636V27.2513Z" fill="white"/>
<path d="M102.429 29.1451V27.2513H103.478V32.0096H102.429V30.1158H100.205V32.0096H99.1566V27.2513H100.205V29.1451H102.429Z" fill="white"/>
<path d="M108.803 31.4101C108.311 31.8923 107.705 32.1334 106.987 32.1334C106.268 32.1334 105.663 31.8923 105.171 31.4101C104.672 30.9216 104.423 30.3284 104.423 29.6305C104.423 28.9326 104.672 28.3394 105.171 27.8509C105.663 27.3687 106.268 27.1276 106.987 27.1276C107.705 27.1276 108.311 27.3687 108.803 27.8509C109.301 28.3394 109.55 28.9326 109.55 29.6305C109.55 30.3284 109.301 30.9216 108.803 31.4101ZM105.472 29.6305C105.472 30.0619 105.617 30.4204 105.909 30.7059C106.2 30.9914 106.559 31.1341 106.987 31.1341C107.414 31.1341 107.773 30.9914 108.064 30.7059C108.356 30.4204 108.501 30.0619 108.501 29.6305C108.501 29.1991 108.356 28.8406 108.064 28.5551C107.773 28.2696 107.414 28.1269 106.987 28.1269C106.559 28.1269 106.2 28.2696 105.909 28.5551C105.617 28.8406 105.472 29.1991 105.472 29.6305Z" fill="white"/>
<path d="M110.499 27.2513H113.752V28.2411H111.547V32.0096H110.499V27.2513Z" fill="white"/>
<path d="M118.381 31.4101C117.889 31.8923 117.283 32.1334 116.565 32.1334C115.846 32.1334 115.241 31.8923 114.749 31.4101C114.25 30.9216 114.001 30.3284 114.001 29.6305C114.001 28.9326 114.25 28.3394 114.749 27.8509C115.241 27.3687 115.846 27.1276 116.565 27.1276C117.283 27.1276 117.889 27.3687 118.381 27.8509C118.879 28.3394 119.128 28.9326 119.128 29.6305C119.128 30.3284 118.879 30.9216 118.381 31.4101ZM115.05 29.6305C115.05 30.0619 115.195 30.4204 115.487 30.7059C115.778 30.9914 116.137 31.1341 116.565 31.1341C116.992 31.1341 117.351 30.9914 117.643 30.7059C117.934 30.4204 118.08 30.0619 118.08 29.6305C118.08 29.1991 117.934 28.8406 117.643 28.5551C117.351 28.2696 116.992 28.1269 116.565 28.1269C116.137 28.1269 115.778 28.2696 115.487 28.5551C115.195 28.8406 115.05 29.1991 115.05 29.6305Z" fill="white"/>
<path d="M126.68 27.2513V31.0389H127.476V33.2849H126.447V32.0096H122.504V27.2513H123.553V31.0389H125.631V27.2513H126.68Z" fill="white"/>
<path d="M129.356 30.2681L131.842 27.2513H132.648V32.0096H131.619V28.9834L129.133 32.0096H128.327V27.2513H129.356V30.2681Z" fill="white"/>
<path d="M135.943 29.5829L138.158 32.0096H136.905L134.914 29.8113V32.0096H133.865V27.2513H134.914V29.3545L136.798 27.2513H138.08L135.943 29.5829Z" fill="white"/>
<path d="M139.242 27.2513H142.961V32.0096H141.912V28.2411H140.29V30.0111C140.29 30.7534 140.125 31.2864 139.795 31.6099C139.465 31.9335 138.983 32.0667 138.348 32.0096V31.0485C138.646 31.0992 138.869 31.0389 139.018 30.8676C139.167 30.69 139.242 30.3886 139.242 29.9636V27.2513Z" fill="white"/>
<path d="M148.029 27.927V27.2513H149.077V32.0096H148.029V31.3244C147.634 31.8637 147.067 32.1334 146.329 32.1334C145.662 32.1334 145.093 31.8923 144.62 31.4101C144.147 30.9279 143.911 30.3347 143.911 29.6305C143.911 28.9263 144.147 28.333 144.62 27.8509C145.093 27.3687 145.662 27.1276 146.329 27.1276C147.067 27.1276 147.634 27.3941 148.029 27.927ZM145.397 30.7249C145.688 31.0104 146.054 31.1531 146.494 31.1531C146.935 31.1531 147.3 31.0104 147.592 30.7249C147.883 30.4331 148.029 30.0682 148.029 29.6305C148.029 29.1927 147.883 28.8311 147.592 28.5456C147.3 28.2537 146.935 28.1078 146.494 28.1078C146.054 28.1078 145.688 28.2537 145.397 28.5456C145.106 28.8311 144.96 29.1927 144.96 29.6305C144.96 30.0619 145.106 30.4267 145.397 30.7249Z" fill="white"/>
<defs>
<clipPath id="clip0_0_1100">
<rect width="150" height="19.1017" fill="white"/>
</clipPath>
</defs>
</svg>
