<svg width="164" height="85" viewBox="0 0 164 85" fill="none" xmlns="http://www.w3.org/2000/svg">
<path d="M20.7306 7.23926L18.821 13.5408H21.0139V13.569H52.1159L53.2106 13.6768L55.1043 14.2472L56.4824 15.0755L57.5507 15.9975L58.5521 17.2461L59.2965 18.6166L59.7418 20.1231L59.8773 21.8592L59.8632 23.5282L59.418 24.8987L58.4711 26.7726L57.2937 28.1025L55.6587 29.3635L54.1715 30.1918L52.6298 30.6263H29.4248L25.6655 42.7295H33.2245L34.6571 38.0069H52.9941L55.2398 37.8585L58.1596 37.2475L60.8506 36.0801L62.8517 34.9409L64.5553 33.5439L65.8682 32.3217L66.9084 30.9919L68.0717 29.3776L69.059 27.1647L69.6803 25.0488L69.9249 22.8765L69.8704 20.7872L69.4779 18.2917L68.707 16.1599L67.6264 14.1925L66.5177 12.6047L64.9759 11.0046L63.3532 9.70123L61.2571 8.57445L59.1733 7.76026L57.1723 7.39468L55.9685 7.27281L20.7306 7.23926ZM31.454 23.6589L30.398 26.9209L30.5599 27.0304H50.8435L52.211 26.4741L53.2106 25.9037L54.1029 25.063L54.6978 24.2064L55.0234 23.5159L55.2258 22.8359L55.2522 22.0358L55.1994 21.1545L54.8069 20.0278L54.3053 19.2277L53.5344 18.4541L52.5348 17.8024L51.697 17.4351L51.2641 17.3274H19.5813L19.5866 17.3132H17.6771L15.8201 23.649L31.454 23.6589ZM14.7695 26.9044L6.88501 52.913H150.828L152.97 45.7743H18.3388L24.0692 27.0834L23.9073 26.8662H17.1737C15.8631 26.9055 15.4584 26.8869 14.7695 26.9044Z" fill="#FF8304"/>
<path d="M73.8171 20.4814L67.0474 42.7041H74.7733L81.4666 20.5966L73.8171 20.4814Z" fill="white"/>
<path d="M88.8427 26.4336L86.8416 26.9493L85.0834 27.9525L83.8937 29.3919L83.1352 31.3187H87.4629L88.0578 30.2873L89.1665 29.6903H90.8174L91.7361 29.9058L92.3045 30.531L92.2764 31.4812L91.2486 32.2141L90.006 32.5391L87.4629 32.8111L84.163 33.5158L82.1073 34.5754L81.0813 35.8771L80.2418 37.6149L80.0535 39.4323L80.3509 41.0889L81.4597 42.2828L82.9468 43.0422L84.8934 43.097L86.2468 42.961L87.6248 42.2828L89.1947 41.2779L88.9237 42.6625H93.4943L93.8463 42.3093L93.4943 41.8483L93.4397 41.1701L96.9561 31.0732V29.5261L96.6041 28.4947L95.7664 27.654L94.765 27.0305L93.4133 26.4866L88.8427 26.4336ZM90.9511 35.2571L90.7804 35.8718L90.3211 37.1964L89.5555 38.2136L88.5224 39.0578L87.2411 39.5559L85.9986 39.6725L85.0623 39.3069L84.6786 38.4061L84.8511 37.7138L85.5586 36.7937L87.1074 36.0448L90.9511 35.2571Z" fill="white"/>
<path d="M97.2803 37.2614H101.58L101.716 38.8898L102.5 39.6769L103.852 39.9211H105.204L106.205 39.3783L106.746 38.4827L106.692 37.9399L105.908 37.18L101.878 35.6602L100.742 34.7917L100.012 33.8418L99.6873 32.8377L99.7684 30.8836L100.607 29.0653L102.04 27.7354L103.933 26.8941L105.854 26.5413L108.558 26.5142L110.505 27.057L111.803 27.9526L112.696 28.9839L113.075 30.6394V32.0506H108.585L108.531 30.9379L107.936 30.1237L107.152 29.7438L106.124 29.7166L104.961 29.9337L104.312 30.3951L104.069 31.155L104.285 31.6978L105.069 32.322L108.937 33.679L110.37 34.6289L111.046 35.7145L111.208 36.6644L111.181 38.2385L110.83 39.2969L110.018 40.6539L108.774 41.848L107.152 42.7436L105.177 43.2322L103.528 43.3678L101.824 43.2593L100.255 42.9879L98.7408 42.1194L97.8483 41.1695L97.2533 39.8126L97.2803 37.2614Z" fill="white"/>
<path d="M117.672 26.9486L112.182 42.7167H116.617L120.16 33.2721L121.161 31.6437L122.648 30.4767L123.974 30.1239L124.974 30.2053L125.569 30.8024L125.515 31.9694L121.594 42.7438H126.218L129.707 33.2178L130.735 31.7251L132.141 30.531L133.412 30.0967L134.521 30.2324L135.197 30.9381L135.251 31.6437L131.276 42.8524H135.711L139.849 31.4266L139.903 29.0112L139.524 28.0613L138.74 27.1928L137.766 26.6229L136.712 26.4058L134.819 26.46L133.088 27.03L131.222 28.4412L130.437 29.2554L130.275 28.3055L129.437 27.2742L128.706 26.7857L127.625 26.46L125.84 26.4329L124.055 26.9486L122.243 28.1427L121.107 29.1469L121.999 26.84L117.672 26.9486Z" fill="white"/>
<path d="M148.72 26.4336L146.719 26.9493L144.961 27.9525L143.771 29.3919L143.012 31.3187H147.34L147.935 30.2873L149.044 29.6903H150.695L151.613 29.9058L152.182 30.531L152.154 31.4812L151.126 32.2141L149.883 32.5391L147.34 32.8111L144.04 33.5158L141.985 34.5754L140.959 35.8771L140.119 37.6149L139.931 39.4323L140.228 41.0889L141.337 42.2828L142.824 43.0422L144.771 43.097L146.124 42.961L147.502 42.2828L149.072 41.2779L148.801 42.6625H153.372L153.724 42.3093L153.372 41.8483L153.317 41.1701L156.833 31.0732V29.5261L156.481 28.4947L155.644 27.654L154.642 27.0305L153.291 26.4866L148.72 26.4336ZM150.938 35.2571L150.765 35.8718L150.306 37.1964L149.542 38.2136L148.509 39.0578L147.228 39.5559L145.985 39.6725L145.047 39.3069L144.665 38.4061L144.838 37.7138L145.545 36.7937L147.094 36.0448L150.938 35.2571Z" fill="white"/>
<path d="M35.8321 61.207L33.831 61.7227L32.0728 62.7259L30.8831 64.1653L30.1245 66.0921H34.4523L35.0471 65.0607L36.1559 64.4638H37.8068L38.7255 64.6792L39.2939 65.3044L39.2658 66.2546L38.2379 66.9876L36.9954 67.3125L34.4523 67.5845L31.1524 68.2892L29.0967 69.3489L28.0707 70.6505L27.2312 72.3884L27.0428 74.2057L27.3403 75.8623L28.4491 77.0562L29.9362 77.8157L31.8827 77.8704L33.2361 77.7344L34.6142 77.0562L36.1841 76.0513L35.913 77.4359H40.4837L40.8356 77.0827L40.4837 76.6218L40.4291 75.9436L43.9455 65.8466V64.2995L43.5935 63.2681L42.7558 62.4274L41.7543 61.804L40.4027 61.26L35.8321 61.207ZM37.9405 70.0306L37.7698 70.6452L37.3105 71.9698L36.5449 72.9871L35.5118 73.8313L34.2305 74.3293L32.988 74.4459L32.0517 74.0803L31.668 73.1796L31.8405 72.4873L32.548 71.5671L34.0968 70.8183L37.9405 70.0306Z" fill="white"/>
<path d="M44.6522 71.8044H48.9523L49.0876 73.4328L49.8719 74.2198L51.2241 74.4641H52.5764L53.577 73.9213L54.1179 73.0257L54.0638 72.4829L53.2795 71.723L49.2499 70.2032L48.114 69.3347L47.3838 68.3848L47.0592 67.3807L47.1403 65.4266L47.9787 63.6082L49.4121 62.2784L51.3052 61.4371L53.2254 61.0843L55.9299 61.0571L57.8771 61.5999L59.1753 62.4955L60.0678 63.5268L60.4464 65.1823V66.5936H55.9569L55.9029 65.4809L55.3079 64.6667L54.5236 64.2867L53.4959 64.2596L52.333 64.4767L51.6839 64.9381L51.4405 65.698L51.6568 66.2408L52.4411 66.865L56.3086 68.222L57.7419 69.1719L58.4181 70.2575L58.5803 71.2073L58.5533 72.7814L58.2017 73.8399L57.3904 75.1969L56.1463 76.391L54.5236 77.2866L52.5493 77.7751L50.8996 77.9108L49.1958 77.8023L47.6272 77.5309L46.1127 76.6624L45.2202 75.7125L44.6252 74.3555L44.6522 71.8044Z" fill="white"/>
<path d="M21.7244 55.7153L14.9547 77.938H22.6806L29.3738 55.8305L21.7244 55.7153Z" fill="white"/>
<path d="M70.5867 61.0356L68.4782 61.5514L66.449 62.6093L64.7999 64.0222L63.4465 65.5675L62.5014 67.1694L61.9329 68.8525L61.5 70.8871L61.4454 73.5204L62.1494 75.4737L63.4747 76.9396L64.6908 77.4818L66.3135 77.9445L68.0981 77.971L69.8563 77.699L72.0474 77.0756L73.6965 76.2614L75.1573 74.7955L76.1305 73.4391L76.4016 72.8139H71.5599L70.7486 73.6829L69.7753 74.1438L68.612 74.4158L67.3149 74.3063L66.4754 73.7924L65.9087 72.9234V70.9418H77.0774L77.7004 68.8243L77.9433 66.8709L77.7532 65.0518L76.8891 63.2892L75.4283 61.9311L73.3463 61.1981L70.5867 61.0356ZM71.5335 64.5096L72.4258 64.7816L73.1826 65.405L73.5346 66.4647L73.3727 67.9288H66.9083L67.4504 66.7632L68.3691 65.541L69.3424 64.8893L70.4511 64.5361L71.5335 64.5096Z" fill="white"/>
<path d="M83.0818 61.6059L77.5917 77.4826H82.2434L85.1372 68.9336L86.0838 67.1967L87.3819 66.0025L88.5989 65.5954L89.7889 65.5683L90.7896 65.7311L92.4393 61.2259L91.033 61.1445L89.7348 61.3616L88.3285 62.013L87.1385 63.1529L86.1919 64.3199L87.2196 61.6059H83.0818Z" fill="white"/>
</svg>
