<svg width="30" height="10" viewBox="0 0 30 10" fill="none" xmlns="http://www.w3.org/2000/svg">
<g clip-path="url(#clip0_0_1121)">
<path d="M12.895 9.83172H10.4844L11.9921 0.681641H14.4025L12.895 9.83172Z" fill="white"/>
<path d="M21.6335 0.905178C21.158 0.720039 20.4039 0.515625 19.4714 0.515625C17.0909 0.515625 15.4146 1.76153 15.4043 3.54279C15.3845 4.857 16.6045 5.58694 17.5169 6.02516C18.4495 6.47294 18.7665 6.76516 18.7665 7.16433C18.7571 7.77727 18.013 8.05988 17.3189 8.05988C16.3565 8.05988 15.8409 7.91416 15.0572 7.57316L14.7398 7.42694L14.4024 9.48094C14.9679 9.73372 16.0095 9.95811 17.0909 9.96788C19.6202 9.96788 21.2669 8.74127 21.2864 6.84305C21.296 5.80144 20.6518 5.00333 19.263 4.35114C18.4199 3.93247 17.9035 3.65017 17.9035 3.22181C17.9135 2.83238 18.3402 2.43351 19.292 2.43351C20.0757 2.41397 20.6514 2.59886 21.0876 2.78386L21.3057 2.88102L21.6335 0.905178Z" fill="white"/>
<path d="M24.8371 6.59016C25.0356 6.0645 25.7995 4.03005 25.7995 4.03005C25.7895 4.04958 25.9976 3.49468 26.1166 3.15403L26.2851 3.94246C26.2851 3.94246 26.7416 6.13266 26.8407 6.59016C26.464 6.59016 25.3132 6.59016 24.8371 6.59016ZM27.8126 0.681641H25.9481C25.3731 0.681641 24.9362 0.846985 24.6881 1.44082L21.1075 9.83155H23.6369C23.6369 9.83155 24.0533 8.70222 24.1428 8.459C24.4203 8.459 26.8808 8.459 27.2378 8.459C27.307 8.78027 27.5254 9.83155 27.5254 9.83155H29.7573L27.8126 0.681641Z" fill="white"/>
<path d="M8.47098 0.681641L6.11027 6.92111L5.85227 5.65566C5.41584 4.19552 4.04704 2.6091 2.51953 1.82029L4.68187 9.82199H7.23096L11.02 0.681641H8.47098Z" fill="white"/>
<path d="M3.91803 0.681641H0.0396771L0 0.866524C3.02536 1.62584 5.02899 3.45613 5.85221 5.65605L5.00909 1.45079C4.87028 0.866391 4.44372 0.700918 3.91803 0.681641Z" fill="#B1B4B9"/>
</g>
<defs>
<clipPath id="clip0_0_1121">
<rect width="30" height="10" fill="white"/>
</clipPath>
</defs>
</svg>
