<svg width="26" height="16" viewBox="0 0 26 16" fill="none" xmlns="http://www.w3.org/2000/svg">
<g clip-path="url(#clip0_0_1128)">
<path d="M18 15H10V2H18V15Z" fill="#B1B4B9"/>
<path d="M10.1604 8.0004C10.1604 5.65507 11.2613 3.56592 12.9757 2.21958C11.722 1.23508 10.1397 0.647461 8.42019 0.647461C4.34926 0.647461 1.04932 3.93943 1.04932 8.0004C1.04932 12.0614 4.34926 15.3533 8.42019 15.3533C10.1397 15.3533 11.722 14.7657 12.9757 13.7812C11.2613 12.4349 10.1604 10.3457 10.1604 8.0004Z" fill="#F5F3F0"/>
<path d="M24.8956 8.0004C24.8956 12.0614 21.5956 15.3533 17.5247 15.3533C15.8051 15.3533 14.2229 14.7657 12.9687 13.7812C14.6836 12.4349 15.7845 10.3457 15.7845 8.0004C15.7845 5.65507 14.6836 3.56592 12.9687 2.21958C14.2229 1.23508 15.8051 0.647461 17.5247 0.647461C21.5956 0.647461 24.8956 3.93943 24.8956 8.0004Z" fill="#7A7A7E"/>
</g>
<defs>
<clipPath id="clip0_0_1128">
<rect width="25" height="14.7059" fill="white" transform="translate(0.5 0.647461)"/>
</clipPath>
</defs>
</svg>
