<svg width="273" height="274" viewBox="0 0 273 274" fill="none" xmlns="http://www.w3.org/2000/svg">
<g clip-path="url(#clip0_0_885)">
<path fill-rule="evenodd" clip-rule="evenodd" d="M71.6929 44.4849C74.8903 42.6389 78.6901 42.1386 82.2563 43.0942L230.168 82.727C233.734 83.6825 236.775 86.0157 238.621 89.2131C240.467 92.4105 240.967 96.2102 240.011 99.7765L211.188 207.348C210.232 210.915 207.899 213.955 204.701 215.801C201.504 217.647 197.704 218.148 194.138 217.192L144.17 203.803L144.184 203.817L126.126 221.298C124.388 222.943 122.257 224.115 119.937 224.702C117.617 225.289 115.185 225.272 112.873 224.653C110.562 224.034 108.447 222.832 106.732 221.164C105.016 219.495 103.757 217.415 103.074 215.121L103.051 215.045L96.1723 190.942L46.2265 177.559C42.6603 176.604 39.6197 174.271 37.7737 171.073C35.9277 167.876 35.4274 164.076 36.383 160.51L65.2068 52.9377C66.1624 49.3715 68.4955 46.3309 71.6929 44.4849ZM144.17 203.803L144.189 203.796C144.204 203.792 144.217 203.785 144.228 203.774L144.167 203.712L144.149 203.781L144.17 203.803ZM144.14 203.772L144.158 203.703L139.342 198.816L144.14 203.772ZM134.483 193.833C136.193 192.157 138.309 190.953 140.625 190.34C142.952 189.723 145.4 189.725 147.726 190.344L147.737 190.347L197.741 203.746L226.565 96.1735L78.6533 56.5407L49.8295 164.113L99.8443 177.514C102.169 178.141 104.289 179.363 105.997 181.061C107.695 182.75 108.926 184.851 109.569 187.158L116.418 211.155L116.438 211.185L116.447 211.192L116.476 211.206C116.491 211.21 116.506 211.21 116.52 211.207L116.553 211.191L134.483 193.833Z" fill="white"/>
<path d="M135.495 140.228C141.065 141.72 146.79 138.415 148.282 132.845C149.774 127.276 146.469 121.551 140.899 120.058C135.33 118.566 129.605 121.871 128.112 127.441C126.62 133.011 129.925 138.736 135.495 140.228Z" fill="white"/>
<path d="M95.1554 129.419C100.725 130.911 106.45 127.606 107.943 122.036C109.435 116.467 106.13 110.742 100.56 109.249C94.9902 107.757 89.2652 111.062 87.7728 116.632C86.2804 122.202 89.5857 127.927 95.1554 129.419Z" fill="white"/>
<path d="M175.834 151.037C181.404 152.529 187.129 149.224 188.622 143.654C190.114 138.085 186.809 132.36 181.239 130.867C175.669 129.375 169.944 132.68 168.452 138.25C166.959 143.82 170.265 149.545 175.834 151.037Z" fill="white"/>
</g>
<defs>
<clipPath id="clip0_0_885">
<rect width="222.734" height="222.734" fill="white" transform="translate(57.6475 0.470703) rotate(15)"/>
</clipPath>
</defs>
</svg>
