<svg width="20" height="20" viewBox="0 0 20 20" fill="none" xmlns="http://www.w3.org/2000/svg">
<path fill-rule="evenodd" clip-rule="evenodd" d="M2.03928 3.95268C2.27253 3.69823 2.66788 3.68104 2.92233 3.91428L10 10.4021L17.0777 3.91428C17.3321 3.68104 17.7275 3.69823 17.9607 3.95268C18.194 4.20713 18.1768 4.60248 17.9223 4.83573L10.4223 11.7107C10.1834 11.9298 9.81663 11.9298 9.57768 11.7107L2.07768 4.83573C1.82323 4.60248 1.80604 4.20713 2.03928 3.95268Z" fill="#FF8304"/>
<path fill-rule="evenodd" clip-rule="evenodd" d="M1.875 4.375C1.875 4.02982 2.15482 3.75 2.5 3.75H17.5C17.8452 3.75 18.125 4.02982 18.125 4.375V15C18.125 15.3315 17.9933 15.6495 17.7589 15.8839C17.5245 16.1183 17.2065 16.25 16.875 16.25H3.125C2.79348 16.25 2.47554 16.1183 2.24112 15.8839C2.0067 15.6495 1.875 15.3315 1.875 15V4.375ZM3.125 5V15H16.875V5H3.125Z" fill="#FF8304"/>
<path fill-rule="evenodd" clip-rule="evenodd" d="M9.09344 9.57757C9.32674 9.83196 9.30965 10.2273 9.05525 10.4606L3.11775 15.9059C2.86336 16.1392 2.468 16.1221 2.2347 15.8678C2.00139 15.6134 2.01848 15.218 2.27288 14.9847L8.21038 9.53938C8.46477 9.30608 8.86013 9.32317 9.09344 9.57757Z" fill="#FF8304"/>
<path fill-rule="evenodd" clip-rule="evenodd" d="M10.9066 9.57757C11.1399 9.32317 11.5352 9.30608 11.7896 9.53938L17.7271 14.9847C17.9815 15.218 17.9986 15.6134 17.7653 15.8678C17.532 16.1221 17.1366 16.1392 16.8823 15.9059L10.9448 10.4606C10.6904 10.2273 10.6733 9.83196 10.9066 9.57757Z" fill="#FF8304"/>
</svg>
