<svg width="30" height="10" viewBox="0 0 30 10" fill="none" xmlns="http://www.w3.org/2000/svg">
<g clip-path="url(#clip0_0_1133)">
<path fill-rule="evenodd" clip-rule="evenodd" d="M2.90765 1.01603C3.17227 1.01444 3.95872 0.94332 4.29184 2.07224C4.51624 2.83269 4.87368 4.07834 5.3642 5.80921H5.56392C6.08995 3.98441 6.45133 2.73875 6.648 2.07224C6.98459 0.93156 7.82607 1.01606 8.16266 1.01606L10.7595 1.01606V9.12748H8.11274V4.34729H7.93525L6.45974 9.12748H4.46836L2.99289 4.34375H2.8154V9.12748H0.168579V1.01606L2.90765 1.01603ZM14.5603 1.01606V5.79983H14.7715L16.5662 1.86617C16.9146 1.08336 17.6572 1.01606 17.6572 1.01606H20.2185V9.12753H17.5165V4.34375H17.3053L15.5457 8.27741C15.1973 9.05667 14.4196 9.12753 14.4196 9.12753H11.8582V1.01606H14.5603ZM29.5582 4.87068C29.1813 5.94319 27.9976 6.71124 26.6872 6.71124H23.8534V9.12753H21.2839V4.87068H29.5582Z" fill="white"/>
<path fill-rule="evenodd" clip-rule="evenodd" d="M26.8107 1.01465H21.1487C21.2835 2.82054 22.8323 4.36649 24.4356 4.36649H29.7363C30.0422 2.86559 28.9892 1.01465 26.8107 1.01465Z" fill="white"/>
</g>
<defs>
<clipPath id="clip0_0_1133">
<rect width="30" height="8.88889" fill="white" transform="translate(0 0.555664)"/>
</clipPath>
</defs>
</svg>
