<svg width="20" height="20" viewBox="0 0 20 20" fill="none" xmlns="http://www.w3.org/2000/svg">
<path d="M13.7685 17.5C7.55518 17.5 2.5 12.4448 2.5 6.23149C2.5 4.03257 4.14489 2.16466 6.32503 1.88529C6.87985 1.8133 7.41745 2.12475 7.63187 2.64122L9.20242 6.30505C9.36753 6.68536 9.33232 7.12436 9.10773 7.47572L7.79933 9.46571C8.37997 10.6622 9.35892 11.6396 10.5578 12.2155L12.5133 10.9056C12.8655 10.6669 13.3131 10.6254 13.7067 10.7976L17.365 12.3689C17.8753 12.581 18.1859 13.1186 18.1147 13.6734C17.8353 15.8535 15.9674 17.4977 13.7693 17.4984L13.7685 17.5ZM6.47841 3.12796C4.92351 3.32985 3.75206 4.66329 3.75206 6.23149C3.75206 11.7546 8.24537 16.2479 13.7685 16.2479C15.3367 16.2479 16.6694 15.0757 16.872 13.5216L13.209 11.9487L11.2527 13.2555C10.8903 13.5005 10.4169 13.5365 10.0186 13.3479C8.56152 12.6467 7.37441 11.4627 6.67091 10.0104L6.66935 10.008C6.4831 9.6183 6.51284 9.15035 6.7476 8.78725L8.05678 6.7957L6.47919 3.12874L6.47841 3.12796Z" fill="#FF8304"/>
</svg>
