<svg width="230" height="230" viewBox="0 0 311 230" fill="none" xmlns="http://www.w3.org/2000/svg">
<path fill-rule="evenodd" clip-rule="evenodd" d="M151.452 18.5602C154.674 17.9295 158.001 18.1013 161.14 19.0605C164.277 20.0191 167.13 21.7347 169.448 24.0561L299.911 154.519C301.783 156.361 303.271 158.555 304.29 160.975C305.318 163.416 305.847 166.038 305.847 168.686C305.847 171.335 305.318 173.957 304.29 176.398C303.271 178.818 301.783 181.012 299.911 182.854L186.854 295.911C185.012 297.783 182.818 299.271 180.398 300.29C177.957 301.318 175.335 301.847 172.686 301.847C170.038 301.847 167.416 301.318 164.975 300.29C162.555 299.271 160.361 297.783 158.519 295.911L28.0602 165.452C25.7388 163.134 24.0191 160.277 23.0605 157.14C22.1013 154.001 21.9295 150.674 22.5602 147.452L22.5671 147.417L42.6921 46.5424C43.4826 42.58 46.58 39.4826 50.5424 38.6921L151.417 18.5671L153.374 28.3739L151.452 18.5602ZM155.295 38.1875L60.9999 56.9999L42.1875 151.295L42.1949 151.303L172.686 281.794L285.794 168.686L155.295 38.1875Z" fill="white"/>
<path d="M105 116C113.284 116 120 109.284 120 101C120 92.7157 113.284 86 105 86C96.7157 86 90 92.7157 90 101C90 109.284 96.7157 116 105 116Z" fill="white"/>
</svg>
