<svg width="20" height="20" viewBox="0 0 20 20" fill="none" xmlns="http://www.w3.org/2000/svg">
<path fill-rule="evenodd" clip-rule="evenodd" d="M2.91702 10.0005C2.91702 8.59966 3.33245 7.23024 4.11077 6.06545C4.8891 4.90066 5.99537 3.99281 7.28968 3.45672C8.58398 2.92063 10.0082 2.78036 11.3822 3.05366C12.7563 3.32696 14.0184 4.00155 15.009 4.99212C15.9996 5.98269 16.6743 7.24476 16.9476 8.61872C17.2209 9.99269 17.0806 11.4168 16.5445 12.7111C16.0084 14.0053 15.1005 15.1115 13.9356 15.8898C12.7708 16.6681 11.4013 17.0835 10.0003 17.0835C8.66022 17.0859 7.34721 16.7061 6.21535 15.9886C6.11467 15.9249 6.0015 15.8835 5.88348 15.8673C5.76546 15.851 5.64533 15.8603 5.53118 15.8944L3.13118 16.6102L4.03535 14.4962C4.0879 14.3731 4.11004 14.2392 4.09989 14.1057C4.08973 13.9723 4.04759 13.8432 3.97702 13.7295C3.28196 12.6101 2.91473 11.3182 2.91702 10.0005V10.0005ZM10.0003 1.25098C5.16785 1.25098 1.25035 5.16828 1.25035 10.0005C1.25035 11.5321 1.64452 12.9737 2.33785 14.2278L0.90035 17.5893C0.838133 17.7349 0.818695 17.8953 0.844313 18.0515C0.869931 18.2078 0.939543 18.3535 1.045 18.4717C1.15045 18.5898 1.28738 18.6754 1.43975 18.7185C1.59213 18.7617 1.75363 18.7605 1.90535 18.7151L5.65535 17.5968C6.97787 18.3547 8.47607 18.7523 10.0003 18.7501C14.8328 18.7501 18.7503 14.8328 18.7503 10.0005C18.7503 5.16828 14.8328 1.25098 10.0003 1.25098ZM11.9112 11.8188L10.8153 12.5904C10.2116 12.2431 9.65718 11.8162 9.16702 11.3213C8.6408 10.7958 8.1858 10.2036 7.81368 9.55973L8.50952 8.96893C8.65451 8.84592 8.75307 8.67703 8.78884 8.49029C8.82462 8.30355 8.79545 8.11019 8.70618 7.94231L7.81952 6.27573C7.76051 6.16505 7.67728 6.06911 7.57603 5.99508C7.47478 5.92104 7.35813 5.87082 7.23476 5.84815C7.11139 5.82548 6.9845 5.83095 6.86354 5.86415C6.74259 5.89735 6.63068 5.95743 6.53618 6.03991L6.27285 6.26906C5.64035 6.8207 5.26618 7.72732 5.57618 8.64561C6.07494 10.0981 6.90027 11.4169 7.98868 12.5004C9.49952 14.0112 11.0345 14.6061 11.9328 14.8378C12.6562 15.0236 13.3403 14.7745 13.8228 14.3812L14.3153 13.9795C14.4192 13.8948 14.5011 13.7864 14.5541 13.6633C14.6071 13.5403 14.6296 13.4063 14.6198 13.2727C14.61 13.1391 14.5681 13.0098 14.4977 12.8958C14.4273 12.7818 14.3304 12.6865 14.2153 12.6179L12.817 11.7846C12.6787 11.7021 12.5195 11.6614 12.3586 11.6675C12.1977 11.6736 12.042 11.7261 11.9103 11.8188H11.9112Z" fill="#FF8304"/>
</svg>
